<svg
  version="1.1"
  xmlns="http://www.w3.org/2000/svg"
  xmlns:xlink="http://www.w3.org/1999/xlink"
  viewBox="0 0 96 96"
  enable-background="new 0 0 96 96"
  xml:space="preserve"
  fill="#000000"
  style="--darkreader-inline-fill: #000000;"
  data-darkreader-inline-fill=""
>
  <g id="SVGRepo_bgCarrier" stroke-width="0"></g>
  <g id="SVGRepo_tracerCarrier" stroke-linecap="round" stroke-linejoin="round"></g>
  <g id="SVGRepo_iconCarrier">
    <g id="Base" display="none"></g>
    <g id="Dibujo">
        <path d="M72.556,42.187C73.501,40.271,74,38.166,74,36c0-7.72-6.28-14-14-14c-4.601,0-8.895,2.281-11.496,6.021C48.336,28.016,48.17,28,48.001,28c-7.664,0-14.219,5.012-16.311,12.184C31.113,40.079,30.508,40,30.001,40 c-6.066,0-11,4.935-11,11s4.934,11,11,11h36c6.065,0,11-4.935,11-11C77.001,47.392,75.247,44.194,72.556,42.187z"></path>

        <path d="M60,26 c5.514,0,10,4.486,10,10c0,1.548-0.36,3.05-1.036,4.417C68.019,40.152,67.028,40,66.001,40c-0.508,0-1.112,0.079-1.69,0.184 c-1.608-5.511-5.854-9.735-11.21-11.401C54.939,27.03,57.397,26,60,26z" fill="#FEEA3E"></path>

        <path d="M66.001,58h-36c-3.859,0-7-3.141-7-7s3.141-7,7-7 c0.277,0,0.723,0.068,1.193,0.162V46c0,1.104,0.896,2,2,2c1.104,0,2-0.896,2-2v-3.219C36.267,36.528,41.63,32,48.001,32 c6.372,0,11.736,4.53,12.807,10.786V46c0,1.104,0.896,2,2,2s2-0.896,2-2v-1.837C65.279,44.069,65.727,44,66.001,44 c3.859,0,7,3.141,7,7S69.86,58,66.001,58z" fill="#181F23"></path>

        <path d="M60,18c1.104,0,2-0.896,2-2v-4c0-1.104-0.896-2-2-2c-1.105,0-2,0.896-2,2v4C58,17.104,58.895,18,60,18z"></path>

        <path d="M84,34h-4c-1.105,0-2,0.896-2,2s0.895,2,2,2h4c1.104,0,2-0.896,2-2S85.104,34,84,34z"></path>

        <path d="M74.143,23.857c0.512,0,1.023-0.195,1.414-0.586l2.828-2.828c0.781-0.781,0.781-2.047,0-2.828 c-0.781-0.781-2.047-0.781-2.828,0l-2.828,2.828c-0.781,0.781-0.781,2.047,0,2.828C73.119,23.662,73.631,23.857,74.143,23.857z"></path>

        <path d="M44.443,23.271c0.391,0.391,0.902,0.586,1.414,0.586c0.512,0,1.023-0.195,1.414-0.586c0.781-0.781,0.781-2.047,0-2.828 l-2.828-2.828c-0.781-0.781-2.047-0.781-2.828,0c-0.781,0.781-0.781,2.047,0,2.828L44.443,23.271z"></path>

        <path d="M45.732,74.464c-0.551-0.956-1.775-1.284-2.732-0.733c-0.957,0.553-1.284,1.775-0.732,2.732l1,1.732c0.37,0.642,1.042,1,1.734,1c0.339,0,0.683-0.086,0.998-0.268c0.957-0.553,1.284-1.775,0.732-2.732L45.732,74.464z"></path>

        <path d="M40.732,65.804C40.18,64.848,38.956,64.52,38,65.071c-0.957,0.553-1.284,1.775-0.732,2.732l1,1.732c0.37,0.642,1.042,1,1.734,1c0.339,0,0.683-0.086,0.998-0.267c0.957-0.553,1.284-1.775,0.732-2.733L40.732,65.804z"></path>

        <path d="M43,70.269c0.315,0.182,0.659,0.267,0.998,0.267c0.691,0,1.364-0.358,1.734-1l1-1.732c0.552-0.957,0.225-2.18-0.732-2.732c-0.957-0.552-2.181-0.224-2.732,0.732l-1,1.732C41.716,68.493,42.043,69.716,43,70.269z"></path>

        <path d="M41,73.731c-0.957-0.552-2.18-0.224-2.732,0.733l-1,1.732c-0.552,0.957-0.225,2.18,0.732,2.732c0.315,0.182,0.659,0.268,0.998,0.268c0.691,0,1.364-0.358,1.734-1l1-1.732C42.284,75.507,41.957,74.284,41,73.731z"></path>

        <path d="M40,72c0-1.104-0.896-2-2-2h-2c-1.104,0-2,0.896-2,2s0.896,2,2,2h2C39.104,74,40,73.104,40,72z"></path>

        <path d="M50,72c0-1.104-0.896-2-2-2h-2c-1.104,0-2,0.896-2,2s0.896,2,2,2h2C49.104,74,50,73.104,50,72z"></path>

        <path d="M60.732,83.268c-0.551-0.956-1.776-1.284-2.732-0.732c-0.957,0.553-1.284,1.775-0.732,2.732l1,1.732c0.37,0.642,1.042,1,1.734,1c0.339,0,0.683-0.086,0.998-0.268c0.957-0.553,1.284-1.775,0.732-2.732L60.732,83.268z"></path>

        <path d="M55.732,74.607c-0.552-0.956-1.775-1.284-2.732-0.732c-0.957,0.553-1.284,1.775-0.732,2.732l1,1.732c0.37,0.642,1.042,1,1.734,1c0.339,0,0.683-0.086,0.998-0.267c0.957-0.553,1.284-1.775,0.732-2.733L55.732,74.607z"></path>

        <path d="M58,79.072c0.315,0.182,0.659,0.267,0.998,0.267c0.691,0,1.364-0.358,1.734-1l1-1.732c0.552-0.957,0.225-2.18-0.732-2.732c-0.957-0.552-2.18-0.224-2.732,0.732l-1,1.732C56.716,77.297,57.043,78.52,58,79.072z"></path>

        <path d="M56,82.535c-0.957-0.552-2.18-0.224-2.732,0.732l-1,1.732c-0.552,0.957-0.225,2.18,0.732,2.732c0.315,0.182,0.659,0.268,0.998,0.268c0.691,0,1.364-0.358,1.734-1l1-1.732C57.284,84.311,56.957,83.088,56,82.535z"></path>

        <path d="M55,80.804c0-1.104-0.896-2-2-2h-2c-1.104,0-2,0.896-2,2s0.896,2,2,2h2C54.104,82.804,55,81.908,55,80.804z"></path>

        <path d="M63,78.804h-2c-1.104,0-2,0.896-2,2s0.896,2,2,2h2c1.104,0,2-0.896,2-2S64.104,78.804,63,78.804z"></path>
    </g>
  </g>
</svg>
