<?xml version="1.0" encoding="iso-8859-1"?>
<!-- Uploaded to: SVG Repo, www.svgrepo.com, Generator: SVG Repo Mixer Tools -->
<svg fill="#000000" version="1.1" id="Layer_1" xmlns="http://www.w3.org/2000/svg" xmlns:xlink="http://www.w3.org/1999/xlink"
	 viewBox="0 0 512 512" xml:space="preserve">
<g>
	<g>
		<path d="M480,70.512h-57.744V32V0h-32H121.728h-32v32v38.512H32H0v32V480v32h32h53.608h32h12.56h54.184h32h12.56h54.168h32h12.56
			h54.184h32h12.56H480h32v-32V102.512v-32H480z M480,480h-53.616v-97.328h-44.56V480H327.64v-97.328h-44.56V480h-54.168v-97.328
			h-44.56V480h-54.184v-97.328h-44.56V480H32V102.512h89.728V32h268.528v70.512H480V480z" fill="#ffffff" stroke="#ffffff"/>
	</g>
</g>
</svg>
