<svg xmlns:dc="http://purl.org/dc/elements/1.1/" xmlns:cc="http://creativecommons.org/ns#" xmlns:rdf="http://www.w3.org/1999/02/22-rdf-syntax-ns#" xmlns:svg="http://www.w3.org/2000/svg" xmlns="http://www.w3.org/2000/svg" version="1.1" x="0px" y="0px" viewBox="2.9 2.9 11.13 11.13"><g transform="translate(0,-118.53333)" style="" display="inline"><path transform="matrix(0.26458333,0,0,0.26458333,0,118.53333)" d="M 13.003906 11.001953 L 13.003906 13.001953 L 11.001953 13.001953 L 11.001953 14 L 11.001953 24.001953 L 14.996094 24.001953 L 14.996094 43.003906 L 14.996094 52.001953 L 14.996094 52.998047 L 16.996094 52.998047 L 16.996094 52.001953 L 16.996094 43.003906 L 31 43.003906 L 31 45.003906 L 18 45.003906 L 18 51.003906 L 50.001953 51.003906 L 50.001953 45.003906 L 37.001953 45.003906 L 37.001953 43.003906 L 52.998047 43.003906 L 52.998047 15.003906 L 20.998047 15.003906 L 20.998047 13.001953 L 18.996094 13.001953 L 18.996094 11.001953 L 13.003906 11.001953 z M 14.996094 13.001953 L 16.996094 13.001953 L 16.996094 15.003906 L 18.996094 15.003906 L 18.996094 22.001953 L 16.996094 22.001953 L 14.996094 22.001953 L 13.003906 22.001953 L 13.003906 15.003906 L 14.996094 15.003906 L 14.996094 13.001953 z M 20.998047 17.003906 L 50.998047 17.003906 L 50.998047 41.003906 L 37.001953 41.003906 L 37.001953 41.001953 L 35.001953 41.001953 L 35.001953 41.003906 L 35.001953 41.998047 L 35.001953 43.003906 L 35.001953 46 L 35.001953 47.003906 L 37.001953 47.003906 L 48 47.003906 L 48 49.003906 L 20.001953 49.003906 L 20.001953 47.003906 L 31.996094 47.003906 L 33.001953 47.003906 L 33.001953 46 L 33.001953 41.003906 L 16.996094 41.003906 L 16.996094 24.001953 L 18.998047 24.001953 L 18.998047 39.001953 L 48.998047 39.001953 L 48.998047 19.005859 L 20.998047 19.005859 L 20.998047 17.003906 z M 20.998047 21.005859 L 46.996094 21.005859 L 46.996094 37.001953 L 20.998047 37.001953 L 20.998047 24.001953 L 20.998047 23.001953 L 20.998047 21.005859 z" fill="#ffffff"/></g></svg>
