<?xml version="1.0" encoding="iso-8859-1"?>
<!-- Uploaded to: SVG Repo, www.svgrepo.com, Generator: SVG Repo Mixer Tools -->
<svg fill="#000000" height="800px" width="800px" version="1.1" id="Layer_1" xmlns="http://www.w3.org/2000/svg" xmlns:xlink="http://www.w3.org/1999/xlink" 
	 viewBox="0 0 488 488" xml:space="preserve">
<g transform="translate(0 -540.36)">
	<g>
		<g>
			<path d="M10.025,622.148c2.6,0,5.1-0.9,7-2.9l61.8-61.8c3.9-3.9,3.9-10.2,0-14.1c-3.9-3.9-10.2-3.9-14.1,0l-61.8,61.8
				c-3.9,3.9-3.9,10.2,0,14.1C4.925,621.148,7.425,622.148,10.025,622.148z"/>
			<path d="M145.725,622.148c2.6,0,5.1-0.9,7-2.9l61.8-61.8c3.9-3.9,3.9-10.2,0-14.1c-3.9-3.9-10.2-3.9-14.1,0l-61.8,61.8
				c-3.9,3.9-3.9,10.2,0,14.1C140.625,621.148,143.125,622.148,145.725,622.148z"/>
			<path d="M281.425,622.148c2.6,0,5.2-0.9,7.1-3l60.9-61.8c3.9-3.9,3.8-10.2-0.1-14.1c-3.9-3.9-10.2-3.8-14.1,0.1l-60.9,61.8
				c-3.9,3.9-3.8,10.2,0.1,14.1C276.325,621.148,278.925,622.148,281.425,622.148z"/>
			<path d="M416.225,622.148c2.5,0,5.1-0.9,7-2.9l61.8-61.8c3.9-3.9,3.9-10.2,0-14.1c-3.9-3.9-10.2-3.9-14.1,0l-61.8,61.8
				c-3.9,3.9-3.9,10.2,0,14.1C411.125,621.148,413.625,622.148,416.225,622.148z"/>
			<path d="M64.725,754.948c2,1.9,4.5,2.9,7.1,2.9c2.6,0,5.2-0.9,7-2.9l61.8-61.8c3.9-3.9,3.9-10.2,0-14.1c-3.9-3.9-10.2-3.9-14.1,0
				l-61.8,61.8C60.825,744.748,60.825,751.048,64.725,754.948z"/>
			<path d="M200.525,754.948c1.9,1.9,4.5,2.9,7,2.9h0c2.6,0,5.2-1,7.1-3l60.9-61.8c3.9-3.9,3.8-10.2-0.1-14.1
				c-3.9-3.9-10.2-3.8-14.1,0.1l-60.9,61.8C196.525,744.748,196.625,751.048,200.525,754.948z"/>
			<path d="M335.225,754.948c2,1.9,4.5,2.9,7.1,2.9c2.6,0,5.1-0.9,7-2.9l61.8-61.8c3.9-3.9,3.9-10.2,0-14.1
				c-3.9-3.9-10.2-3.9-14.1,0l-61.8,61.8C331.325,744.748,331.325,751.048,335.225,754.948z"/>
			<path d="M78.925,814.748c-3.8-3.9-10.2-4-14.1-0.1l-61.8,60.9c-3.9,3.8-4,10.2-0.1,14.1c1.9,2,4.5,3,7.1,3c2.5,0,5.1-0.9,7-2.9
				l61.8-60.9C82.725,825.048,82.725,818.648,78.925,814.748z"/>
			<path d="M214.625,814.748c-3.8-3.9-10.2-4-14.1-0.1l-61.8,60.9c-3.9,3.8-4,10.2-0.1,14.1c1.9,2,4.5,3,7.1,3c2.5,0,5.1-0.9,7-2.9
				l61.8-60.9C218.425,825.048,218.425,818.648,214.625,814.748z"/>
			<path d="M349.325,814.748c-3.9-3.9-10.2-3.9-14.1,0l-60.9,60.9c-3.9,3.9-3.9,10.2,0,14.1c2,1.9,4.5,2.9,7.1,2.9
				c2.5,0,5.1-1,7-2.9l60.9-60.9C353.225,824.948,353.225,818.648,349.325,814.748z"/>
			<path d="M485.125,814.748c-3.8-3.9-10.2-4-14.1-0.1l-61.8,60.9c-3.9,3.8-4,10.2-0.1,14.1c1.9,2,4.5,3,7.1,3c2.5,0,5-0.9,7-2.9
				l61.8-60.9C488.925,825.048,489.025,818.648,485.125,814.748z"/>
			<path d="M126.525,949.548l-61.8,61.8c-3.9,3.9-3.9,10.2,0,14.1c2,1.9,4.5,2.9,7.1,2.9c2.6,0,5.2-1,7-2.9l61.8-61.8
				c3.9-3.9,3.9-10.2,0-14.1C136.725,945.648,130.425,945.648,126.525,949.548z"/>
			<path d="M261.325,949.548l-60.9,61.8c-3.9,3.9-3.8,10.2,0.1,14.1c1.9,1.9,4.5,2.9,7,2.9h0c2.6,0,5.2-1,7.1-3l60.9-61.8
				c3.9-3.9,3.8-10.2-0.1-14.1C271.525,945.548,265.225,945.648,261.325,949.548z"/>
			<path d="M397.025,949.548l-61.8,61.8c-3.9,3.9-3.9,10.2,0,14.1c2,1.9,4.5,2.9,7.1,2.9c2.6,0,5.1-1,7-2.9l61.8-61.8
				c3.9-3.9,3.9-10.2,0-14.1C407.225,945.648,400.925,945.648,397.025,949.548z"/>
		</g>
	</g>
</g>
</svg>