<svg
  version="1.1"
  xmlns="http://www.w3.org/2000/svg"
  xmlns:xlink="http://www.w3.org/1999/xlink"
  viewBox="0 0 96 96"
  enable-background="new 0 0 96 96"
  xml:space="preserve"
  fill="#000000"
  style="--darkreader-inline-fill: #000000;"
  data-darkreader-inline-fill="">

  <g id="SVGRepo_bgCarrier" stroke-width="0"></g>
  <g id="SVGRepo_tracerCarrier" stroke-linecap="round" stroke-linejoin="round"></g>
  <g id="SVGRepo_iconCarrier">
    <g id="Base" display="none"></g>
    <g id="Dibujo">
        <path d="M66,40c-0.507,0-1.112,0.079-1.688,0.184C62.218,33.012,55.663,28,48,28c-7.664,0-14.218,5.012-16.312,12.184 C31.112,40.079,30.507,40,30,40c-6.065,0-11,4.935-11,11s4.935,11,11,11h36c6.065,0,11-4.935,11-11S72.065,40,66,40z" fill="#000000"></path>

        <path d="M66,58H30c-3.859,0-7-3.141-7-7s3.141-7,7-7c0.277,0,0.724,0.068,1.194,0.162V46 c0,1.104,0.896,2,2,2s2-0.896,2-2v-3.224C36.269,36.525,41.631,32,48,32c6.372,0,11.736,4.53,12.808,10.787V46 c0,1.104,0.896,2,2,2s2-0.896,2-2v-1.837C65.278,44.069,65.726,44,66,44c3.859,0,7,3.141,7,7S69.859,58,66,58z" fill="#3d3d3d"></path>

        <path d="M48,67c-1.105,0-2,0.896-2,2v18c0,1.104,0.895,2,2,2c1.104,0,2-0.896,2-2V69C50,67.896,49.104,67,48,67z"></path>

        <path d="M40,62c-1.105,0-2,0.896-2,2v18c0,1.104,0.895,2,2,2c1.104,0,2-0.896,2-2V64C42,62.896,41.104,62,40,62z"></path>

        <path d="M56,62c-1.105,0-2,0.896-2,2v18c0,1.104,0.895,2,2,2c1.104,0,2-0.896,2-2V64C58,62.896,57.104,62,56,62z"></path>
    </g>
  </g>
</svg>
