<?xml version="1.0" encoding="iso-8859-1"?>
<!-- Uploaded to: SVG Repo, www.svgrepo.com, Generator: SVG Repo Mixer Tools -->
<!DOCTYPE svg PUBLIC "-//W3C//DTD SVG 1.1//EN" "http://www.w3.org/Graphics/SVG/1.1/DTD/svg11.dtd">
<svg fill="#000000" height="800px" width="800px" version="1.1" id="Capa_1" xmlns="http://www.w3.org/2000/svg" xmlns:xlink="http://www.w3.org/1999/xlink" 
	 viewBox="0 0 399.922 399.922" xml:space="preserve">
    <!-- Path 1 -->
	<path d="M333.356,277.026l-22.103,4.736c0,0-2.958,0.573-1.329-2.06c4.467-7.22,18.312-28.6,18.312-28.6
	c2.234-3.488,1.217-8.127-2.271-10.36c-3.488-2.234-8.126-1.217-10.361,2.271l-27.593,43.094c-2.246,3.506-2.329,7.413-0.223,10.451
	c2.106,3.038,5.793,4.331,9.864,3.458c0,0,19.128-4.126,25.512-5.466c1.423-0.299,0.808,1.6,0.808,1.6l-17.628,34.529
	c-1.884,3.689-0.42,8.207,3.27,10.09c1.092,0.558,2.256,0.822,3.404,0.822c2.728,0,5.36-1.494,6.685-4.091l23.998-47.007
	c1.818-3.563,1.595-7.394-0.597-10.248C340.911,277.392,337.265,276.188,333.356,277.026z"/>
    
    <!-- Path 2 -->
    <path d="M214.377,310.864l-22.104,4.737c0,0-2.958,0.572-1.329-2.06c4.466-7.22,18.312-28.6,18.312-28.6
	c2.234-3.489,1.217-8.127-2.271-10.361c-3.488-2.234-8.126-1.217-10.361,2.272l-27.593,43.094
	c-2.246,3.506-2.329,7.413-0.223,10.451c2.106,3.037,5.793,4.33,9.864,3.458c0,0,19.128-4.126,25.512-5.466
	c1.423-0.299,0.808,1.6,0.808,1.6l-17.628,34.529c-1.884,3.689-0.42,8.207,3.27,10.09c1.092,0.557,2.256,0.822,3.404,0.822
	c2.729,0,5.36-1.495,6.686-4.091l23.998-47.007c1.818-3.563,1.595-7.394-0.597-10.248
	C221.932,311.23,218.286,310.026,214.377,310.864z"/>

    <path d="M47.1,174.198c-17.7,0-32.1-14.4-32.1-32.101c0-17.7,14.4-32.101,32.1-32.101c2.173,0,4.349,0.221,6.465,0.657
  c6.514,1.346,12.211-1.714,14.176-7.61c4.55-13.657,16.905-22.832,30.744-22.832c0.461,0,0.918,0.037,1.374,0.067
  c0.722,0.049,1.44,0.093,2.159,0.1c3.775,0.022,10.335-1.126,11.838-9.252l0.02-0.106c5.961-18.866,23.237-31.527,43.053-31.527
  c12.263,0,24.167,5.248,32.662,14.397c8.312,8.953,12.728,20.898,12.66,33.974c-0.005,0.951,0.295,2.418-1.609,3.807
  c-7.4,4.226-16.127,13.675-20.981,24.745c-0.347,0.792-1.448,2.033-4.133,1.936c-2.082-0.076-4.154-0.365-6.236-0.365
  c-29.527,0-53.55,24.023-53.55,53.551c0,0.893,0.024,1.78,0.067,2.662H47.1z M346.371,210.087H169.29
  c-21.256,0-38.55-17.294-38.55-38.551c0-21.257,17.294-38.551,38.55-38.551c2.608,0,5.222,0.266,7.768,0.79
  c1.076,0.222,2.16,0.334,3.222,0.334c5.591,0,10.134-3.209,11.855-8.375c5.458-16.381,20.29-27.387,36.91-27.387
  c0.479,0,1.061,0.039,1.677,0.081c0.729,0.05,1.555,0.105,2.441,0.113l0.19,0.001c3.944,0,10.795-1.268,12.365-9.759l0.038-0.202
  c7.074-22.487,27.649-37.584,51.251-37.584c29.628,0,53.732,24.104,53.732,53.732c0,5.085-0.746,10.235-2.217,15.306
  c-1.204,4.148-0.259,7.171,0.747,8.978c2.182,3.919,6.123,5.019,7.607,5.433l0.2,0.056c16.397,4.727,27.848,19.956,27.848,37.034
  C384.922,192.793,367.628,210.087,346.371,210.087z" fill="#181F23"/>

    <!-- Path 3 -->
    <path d="M364.377,118.296c0.813-4.526,1.361-9.051,1.361-13.567c0-37.899-30.833-68.732-68.732-68.732
	c-29.176,0-54.735,18.035-64.589,45.214c-0.269,0.742-1.473,2.136-2.423,2.136c-3.095,0-7.093,0.275-10.071,0.802
	c-0.917,0.162-2.295,0.298-2.478-1.237c-0.781-13.657-6.62-28.197-16.862-39.229c-11.323-12.196-27.234-19.191-43.654-19.191
	c-24.576,0-48.333,13.856-55.501,36.927c-0.967,3.111-2.413,3.791-2.943,3.791c-18.364,0-34.902,10.875-42.774,27.595
	c-0.428,0.908-1.5,2.809-3.973,2.419c-1.529-0.24-3.09-0.229-4.637-0.229c-25.971,0-47.1,21.129-47.1,47.101
	c0,25.972,21.129,47.101,47.1,47.101h71.646c7.315,20.874,27.203,35.889,50.543,35.889h177.081
	c29.528,0,53.551-24.023,53.551-53.551c0-21.882-13.538-41.58-33.52-49.661C365.547,121.53,363.961,120.614,364.377,118.296z
	 M47.1,174.198c-17.7,0-32.1-14.4-32.1-32.101c0-17.7,14.4-32.101,32.1-32.101c2.173,0,4.349,0.221,6.465,0.657
	c6.514,1.346,12.211-1.714,14.176-7.61c4.55-13.657,16.905-22.832,30.744-22.832c0.461,0,0.918,0.037,1.374,0.067
	c0.722,0.049,1.44,0.093,2.159,0.1c3.775,0.022,10.335-1.126,11.838-9.252l0.02-0.106c5.961-18.866,23.237-31.527,43.053-31.527
	c12.263,0,24.167,5.248,32.662,14.397c8.312,8.953,12.728,20.898,12.66,33.974c-0.005,0.951,0.295,2.418-1.609,3.807
	c-7.4,4.226-16.127,13.675-20.981,24.745c-0.347,0.792-1.448,2.033-4.133,1.936c-2.082-0.076-4.154-0.365-6.236-0.365
	c-29.527,0-53.55,24.023-53.55,53.551c0,0.893,0.024,1.78,0.067,2.662H47.1z M346.371,210.087H169.29
	c-21.256,0-38.55-17.294-38.55-38.551c0-21.257,17.294-38.551,38.55-38.551c2.608,0,5.222,0.266,7.768,0.79
	c1.076,0.222,2.16,0.334,3.222,0.334c5.591,0,10.134-3.209,11.855-8.375c5.458-16.381,20.29-27.387,36.91-27.387
	c0.479,0,1.061,0.039,1.677,0.081c0.729,0.05,1.555,0.105,2.441,0.113l0.19,0.001c3.944,0,10.795-1.268,12.365-9.759l0.038-0.202
	c7.074-22.487,27.649-37.584,51.251-37.584c29.628,0,53.732,24.104,53.732,53.732c0,5.085-0.746,10.235-2.217,15.306
	c-1.204,4.148-0.259,7.171,0.747,8.978c2.182,3.919,6.123,5.019,7.607,5.433l0.2,0.056c16.397,4.727,27.848,19.956,27.848,37.034
	C384.922,192.793,367.628,210.087,346.371,210.087z" fill="black"/>
    
    <!-- Path 4 -->
    <path d="M95.397,247.555l-22.104,4.736c0,0-2.958,0.573-1.329-2.06c4.467-7.22,18.312-28.6,18.312-28.6
	c2.234-3.488,1.217-8.127-2.271-10.36c-3.488-2.234-8.126-1.217-10.361,2.271l-27.593,43.094c-2.246,3.506-2.329,7.413-0.223,10.451
	c2.106,3.038,5.793,4.331,9.864,3.458c0,0,19.129-4.126,25.512-5.466c1.423-0.299,0.808,1.6,0.808,1.6l-17.628,34.529
	c-1.884,3.689-0.42,8.207,3.27,10.09c1.092,0.558,2.256,0.822,3.404,0.822c2.729,0,5.36-1.494,6.686-4.091l23.998-47.007
	c1.818-3.563,1.595-7.394-0.597-10.248C102.952,247.92,99.307,246.717,95.397,247.555z"/>
</svg>

